stateDiagram-v2
	state "DealStatusNew" as 0
	state "DealStatusPaymentChannelCreating" as 1
	state "DealStatusPaymentChannelAddingFunds" as 2
	state "DealStatusPaymentChannelReady" as 4
	state "DealStatusAccepted" as 6
	state "DealStatusFailed" as 7
	state "DealStatusRejected" as 8
	state "DealStatusFundsNeeded" as 9
	state "DealStatusOngoing" as 10
	state "DealStatusFundsNeededLastPayment" as 11
	state "DealStatusCompleted" as 12
	state "DealStatusDealNotFound" as 13
	state "DealStatusErrored" as 15
	state "DealStatusBlocksComplete" as 16
	state "DealStatusFinalizing" as 17
	0 : On entry runs ProposeDeal
	1 : On entry runs WaitForPaymentChannelCreate
	2 : On entry runs WaitForPaymentChannelAddFunds
	4 : On entry runs ProcessNextResponse
	6 : On entry runs SetupPaymentChannelStart
	9 : On entry runs ProcessPaymentRequested
	10 : On entry runs ProcessNextResponse
	11 : On entry runs ProcessPaymentRequested
	16 : On entry runs ProcessNextResponse
	17 : On entry runs Finalize
	[*] --> 0
	note right of 0
		The following events are not shown cause they can trigger from any state.

		ClientEventWriteDealProposalErrored - transitions state to DealStatusErrored
		ClientEventReadDealResponseErrored - transitions state to DealStatusErrored
		ClientEventUnknownResponseReceived - transitions state to DealStatusFailed
		ClientEventWriteDealPaymentErrored - transitions state to DealStatusErrored
	end note
	0 --> 0 : ClientEventOpen
	1 --> 7 : ClientEventPaymentChannelErrored
	6 --> 7 : ClientEventPaymentChannelErrored
	6 --> 1 : ClientEventPaymentChannelCreateInitiated
	6 --> 2 : ClientEventPaymentChannelAddingFunds
	1 --> 4 : ClientEventPaymentChannelReady
	2 --> 4 : ClientEventPaymentChannelReady
	1 --> 7 : ClientEventAllocateLaneErrored
	2 --> 7 : ClientEventAllocateLaneErrored
	2 --> 7 : ClientEventPaymentChannelAddFundsErrored
	0 --> 8 : ClientEventDealRejected
	0 --> 13 : ClientEventDealNotFound
	0 --> 6 : ClientEventDealAccepted
	9 --> 7 : ClientEventFundsExpended
	11 --> 7 : ClientEventFundsExpended
	9 --> 7 : ClientEventBadPaymentRequested
	11 --> 7 : ClientEventBadPaymentRequested
	9 --> 7 : ClientEventCreateVoucherFailed
	11 --> 7 : ClientEventCreateVoucherFailed
	9 --> 10 : ClientEventPaymentSent
	11 --> 17 : ClientEventPaymentSent
	4 --> 7 : ClientEventConsumeBlockFailed
	10 --> 7 : ClientEventConsumeBlockFailed
	4 --> 11 : ClientEventLastPaymentRequested
	10 --> 11 : ClientEventLastPaymentRequested
	16 --> 11 : ClientEventLastPaymentRequested
	4 --> 16 : ClientEventAllBlocksReceived
	10 --> 16 : ClientEventAllBlocksReceived
	16 --> 16 : ClientEventAllBlocksReceived
	4 --> 12 : ClientEventComplete
	10 --> 12 : ClientEventComplete
	16 --> 12 : ClientEventComplete
	17 --> 12 : ClientEventComplete
	4 --> 7 : ClientEventEarlyTermination
	10 --> 7 : ClientEventEarlyTermination
	4 --> 9 : ClientEventPaymentRequested
	10 --> 9 : ClientEventPaymentRequested
	4 --> 10 : ClientEventBlocksReceived
	10 --> 10 : ClientEventBlocksReceived
